<?xml version="1.0" encoding="UTF-8" standalone="no"?>
<!DOCTYPE svg PUBLIC "-//W3C//DTD SVG 1.1//EN"
 "http://www.w3.org/Graphics/SVG/1.1/DTD/svg11.dtd">
<!-- Generated by graphviz version 2.40.1 (20161225.0304)
 -->
<!-- Title: Tree Pages: 1 -->
<svg width="532pt" height="269pt"
 viewBox="0.00 0.00 532.00 269.00" xmlns="http://www.w3.org/2000/svg" xmlns:xlink="http://www.w3.org/1999/xlink">
<g id="graph0" class="graph" transform="scale(1 1) rotate(0) translate(4 265)">
<title>Tree</title>
<polygon fill="#ffffff" stroke="transparent" points="-4,4 -4,-265 528,-265 528,4 -4,4"/>
<!-- 0 -->
<g id="node1" class="node">
<title>0</title>
<polygon fill="none" stroke="#000000" points="319,-261 202,-261 202,-193 319,-193 319,-261"/>
<text text-anchor="middle" x="260.5" y="-245.8" font-family="Times,serif" font-size="14.00" fill="#000000">X[77] &lt;= 30.5</text>
<text text-anchor="middle" x="260.5" y="-230.8" font-family="Times,serif" font-size="14.00" fill="#000000">mse = 43227.52</text>
<text text-anchor="middle" x="260.5" y="-215.8" font-family="Times,serif" font-size="14.00" fill="#000000">samples = 765237</text>
<text text-anchor="middle" x="260.5" y="-200.8" font-family="Times,serif" font-size="14.00" fill="#000000">value = 139.813</text>
</g>
<!-- 1 -->
<g id="node2" class="node">
<title>1</title>
<polygon fill="none" stroke="#000000" points="252,-157 135,-157 135,-89 252,-89 252,-157"/>
<text text-anchor="middle" x="193.5" y="-141.8" font-family="Times,serif" font-size="14.00" fill="#000000">X[77] &lt;= 6.5</text>
<text text-anchor="middle" x="193.5" y="-126.8" font-family="Times,serif" font-size="14.00" fill="#000000">mse = 28148.473</text>
<text text-anchor="middle" x="193.5" y="-111.8" font-family="Times,serif" font-size="14.00" fill="#000000">samples = 409029</text>
<text text-anchor="middle" x="193.5" y="-96.8" font-family="Times,serif" font-size="14.00" fill="#000000">value = 92.731</text>
</g>
<!-- 0&#45;&gt;1 -->
<g id="edge1" class="edge">
<title>0&#45;&gt;1</title>
<path fill="none" stroke="#000000" d="M238.5617,-192.9465C232.951,-184.2373 226.8471,-174.7626 220.9958,-165.6801"/>
<polygon fill="#000000" stroke="#000000" points="223.8457,-163.641 215.4876,-157.13 217.9611,-167.4321 223.8457,-163.641"/>
<text text-anchor="middle" x="210.2006" y="-177.8646" font-family="Times,serif" font-size="14.00" fill="#000000">True</text>
</g>
<!-- 4 -->
<g id="node5" class="node">
<title>4</title>
<polygon fill="none" stroke="#000000" points="387,-157 270,-157 270,-89 387,-89 387,-157"/>
<text text-anchor="middle" x="328.5" y="-141.8" font-family="Times,serif" font-size="14.00" fill="#000000">X[76] &lt;= 10.5</text>
<text text-anchor="middle" x="328.5" y="-126.8" font-family="Times,serif" font-size="14.00" fill="#000000">mse = 55074.416</text>
<text text-anchor="middle" x="328.5" y="-111.8" font-family="Times,serif" font-size="14.00" fill="#000000">samples = 356208</text>
<text text-anchor="middle" x="328.5" y="-96.8" font-family="Times,serif" font-size="14.00" fill="#000000">value = 193.876</text>
</g>
<!-- 0&#45;&gt;4 -->
<g id="edge4" class="edge">
<title>0&#45;&gt;4</title>
<path fill="none" stroke="#000000" d="M282.7657,-192.9465C288.4602,-184.2373 294.6552,-174.7626 300.5938,-165.6801"/>
<polygon fill="#000000" stroke="#000000" points="303.6411,-167.4151 306.1842,-157.13 297.7823,-163.5843 303.6411,-167.4151"/>
<text text-anchor="middle" x="311.3058" y="-177.8998" font-family="Times,serif" font-size="14.00" fill="#000000">False</text>
</g>
<!-- 2 -->
<g id="node3" class="node">
<title>2</title>
<polygon fill="none" stroke="#000000" points="117,-53 0,-53 0,0 117,0 117,-53"/>
<text text-anchor="middle" x="58.5" y="-37.8" font-family="Times,serif" font-size="14.00" fill="#000000">mse = 71569.654</text>
<text text-anchor="middle" x="58.5" y="-22.8" font-family="Times,serif" font-size="14.00" fill="#000000">samples = 101099</text>
<text text-anchor="middle" x="58.5" y="-7.8" font-family="Times,serif" font-size="14.00" fill="#000000">value = 145.945</text>
</g>
<!-- 1&#45;&gt;2 -->
<g id="edge2" class="edge">
<title>1&#45;&gt;2</title>
<path fill="none" stroke="#000000" d="M145.9041,-88.9777C132.3252,-79.2713 117.5661,-68.7213 104.1088,-59.1018"/>
<polygon fill="#000000" stroke="#000000" points="106.0908,-56.2164 95.9202,-53.2485 102.0201,-61.9111 106.0908,-56.2164"/>
</g>
<!-- 3 -->
<g id="node4" class="node">
<title>3</title>
<polygon fill="none" stroke="#000000" points="252,-53 135,-53 135,0 252,0 252,-53"/>
<text text-anchor="middle" x="193.5" y="-37.8" font-family="Times,serif" font-size="14.00" fill="#000000">mse = 12657.589</text>
<text text-anchor="middle" x="193.5" y="-22.8" font-family="Times,serif" font-size="14.00" fill="#000000">samples = 307930</text>
<text text-anchor="middle" x="193.5" y="-7.8" font-family="Times,serif" font-size="14.00" fill="#000000">value = 75.26</text>
</g>
<!-- 1&#45;&gt;3 -->
<g id="edge3" class="edge">
<title>1&#45;&gt;3</title>
<path fill="none" stroke="#000000" d="M193.5,-88.9777C193.5,-80.7364 193.5,-71.887 193.5,-63.5153"/>
<polygon fill="#000000" stroke="#000000" points="197.0001,-63.2484 193.5,-53.2485 190.0001,-63.2485 197.0001,-63.2484"/>
</g>
<!-- 5 -->
<g id="node6" class="node">
<title>5</title>
<polygon fill="none" stroke="#000000" points="387,-53 270,-53 270,0 387,0 387,-53"/>
<text text-anchor="middle" x="328.5" y="-37.8" font-family="Times,serif" font-size="14.00" fill="#000000">mse = 43059.492</text>
<text text-anchor="middle" x="328.5" y="-22.8" font-family="Times,serif" font-size="14.00" fill="#000000">samples = 295935</text>
<text text-anchor="middle" x="328.5" y="-7.8" font-family="Times,serif" font-size="14.00" fill="#000000">value = 172.815</text>
</g>
<!-- 4&#45;&gt;5 -->
<g id="edge5" class="edge">
<title>4&#45;&gt;5</title>
<path fill="none" stroke="#000000" d="M328.5,-88.9777C328.5,-80.7364 328.5,-71.887 328.5,-63.5153"/>
<polygon fill="#000000" stroke="#000000" points="332.0001,-63.2484 328.5,-53.2485 325.0001,-63.2485 332.0001,-63.2484"/>
</g>
<!-- 6 -->
<g id="node7" class="node">
<title>6</title>
<polygon fill="none" stroke="#000000" points="524,-53 405,-53 405,0 524,0 524,-53"/>
<text text-anchor="middle" x="464.5" y="-37.8" font-family="Times,serif" font-size="14.00" fill="#000000">mse = 101195.612</text>
<text text-anchor="middle" x="464.5" y="-22.8" font-family="Times,serif" font-size="14.00" fill="#000000">samples = 60273</text>
<text text-anchor="middle" x="464.5" y="-7.8" font-family="Times,serif" font-size="14.00" fill="#000000">value = 297.283</text>
</g>
<!-- 4&#45;&gt;6 -->
<g id="edge6" class="edge">
<title>4&#45;&gt;6</title>
<path fill="none" stroke="#000000" d="M376.4485,-88.9777C390.128,-79.2713 404.9964,-68.7213 418.5534,-59.1018"/>
<polygon fill="#000000" stroke="#000000" points="420.6725,-61.8898 426.8027,-53.2485 416.6217,-56.1809 420.6725,-61.8898"/>
</g>
</g>
</svg>
